<?xml version="1.0" standalone="no"?><!DOCTYPE svg PUBLIC "-//W3C//DTD SVG 1.1//EN" "http://www.w3.org/Graphics/SVG/1.1/DTD/svg11.dtd"><svg t="1622074324268" class="icon" viewBox="0 0 1024 1024" version="1.1" xmlns="http://www.w3.org/2000/svg" p-id="1338" width="48" height="48" xmlns:xlink="http://www.w3.org/1999/xlink"><defs><style type="text/css"></style></defs><path d="M781.7 963.9c-12.9 0-23.4-10.5-23.4-23.4V288.3c0-12.8-10.4-23.2-23.2-23.2H83c-12.9 0-23.4-10.5-23.4-23.4s10.5-23.4 23.4-23.4h652.1c38.6 0 70 31.4 70 70v652.1c0 13-10.5 23.5-23.4 23.5z" fill="#7D7D7D" p-id="1339"></path><path d="M939.7 805.9H287.5c-38.6 0-70-31.4-70-70V83.8c0-12.9 10.5-23.4 23.4-23.4 12.9 0 23.4 10.5 23.4 23.4v652.1c0 12.8 10.4 23.2 23.2 23.2h652.1c12.9 0 23.4 10.5 23.4 23.4 0.1 12.9-10.4 23.4-23.3 23.4z" fill="#7D7D7D" p-id="1340"></path></svg>