<?xml version="1.0" standalone="no"?><!DOCTYPE svg PUBLIC "-//W3C//DTD SVG 1.1//EN" "http://www.w3.org/Graphics/SVG/1.1/DTD/svg11.dtd"><svg t="1625040238146" class="icon" viewBox="0 0 1024 1024" version="1.1" xmlns="http://www.w3.org/2000/svg" p-id="23339" xmlns:xlink="http://www.w3.org/1999/xlink" width="48" height="48"><defs><style type="text/css"></style></defs><path d="M57.6 787.2H0v179.2c0 32 25.6 57.6 57.6 57.6h179.2v-57.6H57.6v-179.2zM57.6 57.6h179.2V0H57.6C25.6 0 0 25.6 0 57.6v179.2h57.6V57.6z m908.8 908.8h-179.2v57.6h179.2c32 0 57.6-25.6 57.6-57.6v-179.2h-57.6v179.2z m0-966.4h-179.2v57.6h179.2v179.2h57.6V57.6c0-32-25.6-57.6-57.6-57.6z m32 550.4c19.2-25.6 19.2-57.6 0-76.8-76.8-76.8-268.8-256-486.4-256-224 0-409.6 172.8-486.4 256-19.2 25.6-19.2 57.6 0 76.8 76.8 76.8 268.8 256 486.4 256 224 0 409.6-172.8 486.4-256zM512 659.2c-83.2 0-147.2-64-147.2-147.2s64-147.2 147.2-147.2c83.2 0 147.2 64 147.2 147.2 0 83.2-64 147.2-147.2 147.2z m0 0" p-id="23340"></path></svg>