<?xml version="1.0" standalone="no"?><!DOCTYPE svg PUBLIC "-//W3C//DTD SVG 1.1//EN" "http://www.w3.org/Graphics/SVG/1.1/DTD/svg11.dtd"><svg t="1622076275388" class="icon" viewBox="0 0 1251 1024" version="1.1" xmlns="http://www.w3.org/2000/svg" p-id="12192" xmlns:xlink="http://www.w3.org/1999/xlink" width="58.640625" height="48"><defs><style type="text/css"></style></defs><path d="M1137.777778 0H113.777778a114.119111 114.119111 0 0 0-113.777778 113.777778v796.444444a114.119111 114.119111 0 0 0 113.777778 113.777778h1024a114.119111 114.119111 0 0 0 113.777778-113.777778V113.777778a114.119111 114.119111 0 0 0-113.777778-113.777778z m-56.888889 910.222222h-398.222222a56.888889 56.888889 0 0 1-56.888889-56.888889v-227.555555a56.888889 56.888889 0 0 1 56.888889-56.888889h398.222222a56.888889 56.888889 0 0 1 56.888889 56.888889v227.555555a56.888889 56.888889 0 0 1-56.888889 56.888889z" p-id="12193"></path></svg>