<?xml version="1.0" standalone="no"?><!DOCTYPE svg PUBLIC "-//W3C//DTD SVG 1.1//EN" "http://www.w3.org/Graphics/SVG/1.1/DTD/svg11.dtd"><svg t="1618932908197" class="icon" viewBox="0 0 1024 1024" version="1.1" xmlns="http://www.w3.org/2000/svg" p-id="2413" width="48" height="48" xmlns:xlink="http://www.w3.org/1999/xlink"><defs><style type="text/css"></style></defs><path d="M511.808 487.936c-31.36-17.92-58.496-33.664-80.576-46.72l-19.328-11.52v321.92l19.392-11.712c5.12-3.008 10.624-6.4 16.64-10.112l1.088-0.64c18.432-11.264 41.344-25.28 65.792-39.168a4977.024 4977.024 0 0 0 153.088-87.808l19.84-12.16-20.288-11.392a5370.496 5370.496 0 0 1-155.648-90.688" fill="#ffffff" p-id="2414"></path><path d="M871.04 156.928h-210.368l58.432-104.64a37.568 37.568 0 0 0-10.816-47.36c-15.744-8.96-34.56-2.944-44.864 14.4l-76.736 137.6h-165.12L344.704 19.008C334.4 1.856 315.52-4.096 300.032 4.864a37.376 37.376 0 0 0-10.816 47.552l58.368 104.448h-195.2C70.08 156.864 0.64 229.44 0.64 315.264v550.144c0 85.888 69.44 158.4 151.68 158.4h718.592c85.056 0 151.68-69.568 151.68-158.4V315.264c0-85.824-69.44-158.4-151.68-158.4z m-140.608 480.64c-5.632 3.008-22.272 12.928-49.92 29.44l-1.792 1.024c-33.408 19.84-79.168 47.168-134.08 79.232-30.464 16.704-58.56 33.536-79.424 46.08-14.464 8.64-29.44 17.6-32.384 18.688l-2.816 0.96-2.112 2.176a32.064 32.064 0 0 1-23.872 8.64c-31.872 0-55.872-25.088-55.872-58.368V418.56c0-33.984 25.088-61.632 55.872-61.632 9.728 0 19.84 2.688 29.952 8 2.752 1.472 16.064 9.28 34.56 20.032l0.768 0.448c19.456 11.328 44.992 26.24 72.128 41.92 96 54.784 172.48 99.328 188.096 109.184l0.32 0.192c15.872 9.536 26.24 29.376 26.432 50.432 0 21.376-10.24 41.216-25.792 50.56v-0.064z" fill="#ffffff" p-id="2415"></path></svg>