<?xml version="1.0" standalone="no"?><!DOCTYPE svg PUBLIC "-//W3C//DTD SVG 1.1//EN" "http://www.w3.org/Graphics/SVG/1.1/DTD/svg11.dtd"><svg t="1627528664715" class="icon" viewBox="0 0 1070 1024" version="1.1" xmlns="http://www.w3.org/2000/svg" p-id="1876" xmlns:xlink="http://www.w3.org/1999/xlink" width="50.15625" height="48"><defs><style type="text/css">@font-face { font-family: feedback-iconfont; src: url("//at.alicdn.com/t/font_1031158_1uhr8ri0pk5.eot?#iefix") format("embedded-opentype"), url("//at.alicdn.com/t/font_1031158_1uhr8ri0pk5.woff2") format("woff2"), url("//at.alicdn.com/t/font_1031158_1uhr8ri0pk5.woff") format("woff"), url("//at.alicdn.com/t/font_1031158_1uhr8ri0pk5.ttf") format("truetype"), url("//at.alicdn.com/t/font_1031158_1uhr8ri0pk5.svg#iconfont") format("svg"); }
</style></defs><path d="M932.965367 499.620035v280.410871h-79.771657v-280.410871c0-187.002636-152.841378-337.516953-337.516953-337.516953-187.049177 0-337.516953 152.794837-337.516953 337.516953v280.457413H98.388147v-280.457413c0-216.649396 170.945914-396.810472 383.034269-412.774112V38.908463c0-22.8052 18.290701-38.768839 38.815381-38.768839 22.8052 0 38.722298 18.24416 38.722298 38.768839v47.844378c207.573857 22.8052 374.005272 198.405236 374.005272 412.820652z m91.174257 321.46023c0 22.8052-18.24416 41.002818-41.049359 41.002818H41.421689a40.863194 40.863194 0 0 1-40.956277-40.956276c0-22.8052 18.151077-41.0959 40.956277-41.095901h941.85474c22.8052 0 41.049359 18.24416 41.04936 41.049359h-0.139624z m-385.268249 38.76884c-6.84156 45.610399-61.574039 84.332697-123.148077 84.332697s-114.025998-36.488319-123.148078-84.332697H312.757022c6.84156 91.174257 95.735297 164.150895 202.826652 164.150895 107.27752 0 196.171257-72.930097 203.012817-164.150895h-79.771657z" p-id="1877"></path></svg>