<?xml version="1.0" standalone="no"?><!DOCTYPE svg PUBLIC "-//W3C//DTD SVG 1.1//EN" "http://www.w3.org/Graphics/SVG/1.1/DTD/svg11.dtd"><svg t="1619004550066" class="icon" viewBox="0 0 1024 1024" version="1.1" xmlns="http://www.w3.org/2000/svg" p-id="1758" width="48" height="48" xmlns:xlink="http://www.w3.org/1999/xlink"><defs><style type="text/css"></style></defs><path d="M707.980159 38.846253A510.513384 510.513384 0 0 0 511.999835 0.00033C229.243797 0.00033 0 229.244127 0 512.000165 0 794.756203 229.243797 1024 511.999835 1024 794.755873 1024 1023.99967 794.756203 1023.99967 512.000165c0-68.079462-13.311996-134.408215-38.845923-195.980324a25.599992 25.599992 0 0 0-47.302179 19.588123 459.3134 459.3134 0 0 1 34.948118 176.392201c0 254.480434-206.319417 460.799851-460.799851 460.799852-254.480434 0-460.799851-206.319417-460.799852-460.799852 0-254.480434 206.319417-460.799851 460.799852-460.799851 61.340883 0 120.96409 11.990706 176.392201 34.948118a25.599992 25.599992 0 0 0 19.588123-47.302179z m-262.342109 225.874508c-28.80412-20.149671-61.638174-3.435354-61.638174 31.050313V728.361386c0 34.320505 33.032247 51.034822 61.638174 31.050312l302.839644-212.133093c26.095475-18.299865 25.963346-52.257015 0-70.457783L445.605018 264.720761h0.033032z m-10.306061 440.0556V319.356098l275.125588 192.710132-275.158621 192.743163v-0.033032z" fill="#3D3D3D" p-id="1759"></path></svg>