<?xml version="1.0" standalone="no"?><!DOCTYPE svg PUBLIC "-//W3C//DTD SVG 1.1//EN" "http://www.w3.org/Graphics/SVG/1.1/DTD/svg11.dtd"><svg t="1630688813263" class="icon" viewBox="0 0 1024 1024" version="1.1" xmlns="http://www.w3.org/2000/svg" p-id="1442" width="128" height="128" xmlns:xlink="http://www.w3.org/1999/xlink"><defs><style type="text/css"></style></defs><path d="M192 802l256 158V436L192 286z" fill="#e6e6e6" p-id="1443"></path><path d="M246 576l4 2v-60l140 72v-5l-144-73zM246 486l4 2v-60l140 72v-5l-144-73z" fill="#e6e6e6" p-id="1444"></path><path d="M250 488l140 72v-60l-140-72z" fill="#e6e6e6" p-id="1445"></path><path d="M448 438v522l384-230V214z" fill="#e6e6e6" p-id="1446"></path><path d="M575.993 66.314l252.044 147.682L448.01 435.68 195.956 286.023 575.993 66.314z" fill="#e6e6e6" p-id="1447"></path><path d="M250 578l140 72v-60l-140-72z" fill="#e6e6e6" p-id="1448"></path><path d="M316 741.488c17.673 10.183 32 2.549 32-17.05 0-19.6-14.327-43.743-32-53.926-17.673-10.183-32-2.549-32 17.05 0 19.6 14.327 43.743 32 53.926z" fill="#e6e6e6" p-id="1449"></path><path d="M320 745.488c17.673 10.183 32 2.549 32-17.05 0-19.6-14.327-43.743-32-53.926-17.673-10.183-32-2.549-32 17.05 0 19.6 14.327 43.743 32 53.926z" fill="#e6e6e6" p-id="1450"></path></svg>