<?xml version="1.0" standalone="no"?><!DOCTYPE svg PUBLIC "-//W3C//DTD SVG 1.1//EN" "http://www.w3.org/Graphics/SVG/1.1/DTD/svg11.dtd"><svg t="1618933054503" class="icon" viewBox="0 0 1496 1024" version="1.1" xmlns="http://www.w3.org/2000/svg" p-id="3325" width="70.125" height="48" xmlns:xlink="http://www.w3.org/1999/xlink"><defs><style type="text/css"></style></defs><path d="M1158.138655 477.895444V291.055691c0-39.069358-44.898254-73.806429-103.187216-73.806429H134.852301c-58.288962 0-103.187216 34.658302-103.187216 73.806429v590.845273c0 39.148127 44.898254 73.885197 103.187216 73.885197h915.451775c58.288962 0 103.187216-34.658302 103.187216-73.885197V477.974212l4.568594-0.078768z" p-id="3326" fill="#ffffff"></path><path d="M1427.291874 330.125049l-314.130242 147.770395v221.498054l314.209011 147.691626c17.959302 8.664575 44.898254 0 44.898254-12.996863V343.200681c0-13.075632-27.017721-21.740207-44.898254-13.075632zM215.747927 130.288433c0 71.994745 60.258183 130.362475 134.615994 130.362475 74.357811 0 134.615994-58.288962 134.615994-130.362475C484.979915 58.372457 424.721732 0.004726 350.285153 0.004726 314.760393 0.004726 280.417167 13.710509 255.21113 38.207627c-25.206038 24.418349-39.384434 57.501273-39.384434 92.159574zM709.313649 130.288433c0 52.775141 32.846618 100.272768 83.101155 120.437597a137.845518 137.845518 0 0 0 146.7464-28.278023 127.290489 127.290489 0 0 0 29.144481-142.020267A134.694763 134.694763 0 0 0 843.929643 0.004726c-74.279042 0-134.615994 58.288962-134.615994 130.283707z" p-id="3327" fill="#ffffff"></path></svg>