<?xml version="1.0" standalone="no"?><!DOCTYPE svg PUBLIC "-//W3C//DTD SVG 1.1//EN" "http://www.w3.org/Graphics/SVG/1.1/DTD/svg11.dtd"><svg t="1622772143489" class="icon" viewBox="0 0 1024 1024" version="1.1" xmlns="http://www.w3.org/2000/svg" p-id="10001" xmlns:xlink="http://www.w3.org/1999/xlink" width="48" height="48"><defs><style type="text/css"></style></defs><path d="M511.99232 1023.98464a516.835767 516.835767 0 0 1-77.945711-5.898151 503.98476 503.98476 0 0 1-74.274726-17.121023c-15.871762-4.940726-31.712804-10.751839-47.041854-17.218302a511.874562 511.874562 0 0 1-126.390424-76.68109c-12.625731-10.413924-24.816268-21.503677-36.351455-33.043984s-22.66078-23.776923-33.043984-36.351455-20.326095-25.876092-29.475398-39.423409-17.817333-27.806303-25.645695-42.213767a507.676225 507.676225 0 0 1-51.398909-140.859327c-1.694695-8.268676-3.220432-16.808708-4.500413-25.210501s-2.391004-17.085184-3.256271-25.599616-1.535977-17.3463-1.97629-25.99897S0 520.757629 0 511.99232s0.225277-17.627896 0.66559-26.347125 1.105903-17.407739 1.97629-25.99897 1.960931-17.156863 3.256272-25.599616 2.800598-16.895747 4.500412-25.210502A503.98476 503.98476 0 0 1 23.039654 359.741164c4.940726-15.871762 10.751839-31.707684 17.218302-47.041854A511.874562 511.874562 0 0 1 116.939046 186.308885a514.777558 514.777558 0 0 1 151.032614-124.516532 513.3491 513.3491 0 0 1 44.753249-21.559996A502.479503 502.479503 0 0 1 359.741164 23.039654a512.473593 512.473593 0 0 1 49.064224-12.62061c8.268676-1.694695 16.808708-3.220432 25.210502-4.500413s17.085184-2.391004 25.599616-3.256271a521.98641 521.98641 0 0 1 78.723939-1.99677c8.719229 0.440313 17.407739 1.105903 25.99897 1.97629s17.156863 1.960931 25.599616 3.256272 16.895747 2.800598 25.210502 4.500412a503.98476 503.98476 0 0 1 49.064224 12.620611c15.871762 4.940726 31.712804 10.751839 47.041854 17.218301a511.874562 511.874562 0 0 1 126.390424 76.68109 514.777558 514.777558 0 0 1 124.516533 151.032615 507.676225 507.676225 0 0 1 51.398909 140.859327c1.694695 8.268676 3.220432 16.808708 4.500412 25.210502s2.391004 17.085184 3.256271 25.599616 1.535977 17.3463 1.976291 25.99897 0.66559 17.586936 0.66559 26.347124-0.225277 17.627896-0.66559 26.347125-1.105903 17.407739-1.976291 25.99897-1.960931 17.156863-3.256271 25.599616-2.800598 16.895747-4.500412 25.210502a503.98476 503.98476 0 0 1-12.620611 49.064224c-4.940726 15.871762-10.751839 31.712804-17.218302 47.041855a511.874562 511.874562 0 0 1-76.68109 126.390424c-10.413924 12.625731-21.503677 24.816268-33.043984 36.351454s-23.771803 22.66078-36.351455 33.043985-25.876092 20.326095-39.423408 29.475398-27.806303 17.817333-42.213767 25.645695a507.676225 507.676225 0 0 1-140.859327 51.398909c-8.268676 1.694695-16.808708 3.220432-25.210502 4.500412s-17.085184 2.391004-25.599616 3.256272-17.3463 1.535977-25.99897 1.97629-17.581816 0.716789-26.347125 0.716789z m-233.683535-307.159552a28.717649 28.717649 0 0 0 0 57.435298h467.36707a28.620371 28.620371 0 0 0 28.589651-28.589651 29.900351 29.900351 0 0 0-8.391554-20.479693 29.372999 29.372999 0 0 0-20.192977-8.391554z m232.577632-467.105954a193.021105 193.021105 0 0 0-134.751259 54.819018A187.245831 187.245831 0 0 0 320.537912 437.241441v255.99616h380.814768v-255.99616a185.935131 185.935131 0 0 0-55.863482-132.708409A192.232637 192.232637 0 0 0 511.99232 249.724254z m-14.69418 380.732849l-5.442478-122.65288H396.855487L520.122758 352.250716l10.490723 100.186657 89.173702 3.148753-123.589826 174.845378z" p-id="10002"></path></svg>